<?xml version="1.0" encoding="utf-8"?>
<!-- Generator: Adobe Illustrator 16.0.0, SVG Export Plug-In . SVG Version: 6.00 Build 0)  -->
<!DOCTYPE svg PUBLIC "-//W3C//DTD SVG 1.1//EN" "http://www.w3.org/Graphics/SVG/1.1/DTD/svg11.dtd">
<svg version="1.1" id="Camada_1" xmlns="http://www.w3.org/2000/svg" xmlns:xlink="http://www.w3.org/1999/xlink" x="0px" y="0px"
	 width="100px" height="100px" viewBox="0 0 100 100" enable-background="new 0 0 100 100" xml:space="preserve">
<g>
	
		<linearGradient id="SVGID_1_" gradientUnits="userSpaceOnUse" x1="294" y1="-328.5" x2="386.1602" y2="-328.5" gradientTransform="matrix(1 0 0 -1 -290 -279)">
		<stop  offset="0" style="stop-color:#0086FF"/>
		<stop  offset="1" style="stop-color:#39AAFF"/>
	</linearGradient>
	<path fill="url(#SVGID_1_)" d="M96.16,23.375c0-3.521-2.631-6.375-5.875-6.375H9.875C6.63,17,4,19.854,4,23.375v52.25
		C4,79.146,6.63,82,9.875,82h80.41c3.244,0,5.875-2.854,5.875-6.375V23.375z M9.934,21h80.352c1.055,0,2.188,1.231,2.188,2.375V29
		H7.686v-5.625C7.686,22.231,8.88,21,9.934,21z"/>
</g>
<text transform="matrix(1 0 0 1 14 69.5)" fill="#FFFFFF" font-family="'AvenirNext-Regular'" font-size="36">TUC</text>
<text transform="matrix(1 0 0 1 14 69.5)" fill="none" stroke="#FFFFFF" font-family="'AvenirNext-Regular'" font-size="36">TUC</text>
<g>
	<rect x="7.686" y="21" fill="#FFFFFF" width="85.583" height="8"/>
</g>
</svg>
